# xmcd
#
# Track frame offsets:
#	150
#	4685
#	31798
#	59835
#	101749
#	120827
#	152156
#	156295
#	177977
#	247249
#
# Disc length: 4284 seconds
#
# Revision: 1
# Processed by: cddbd v1.5.2PL0 Copyright (c) Steve Scherf et al.
# Submitted via: audiograbber 1.83.01
#
DISCID=7e10ba0a
DTITLE=Grateful Dead - 72-08-25 Berkeley Community Theatre, Berkeley CA
DYEAR=1900
DGENRE=
TTITLE0=Bill Graham Intro
TTITLE1=Cold Rain and Snow
TTITLE2=Black Throated Wind
TTITLE3=He's Gone
TTITLE4=BIODTL
TTITLE5=Loser
TTITLE6=The Frozen Logger
TTITLE7=El Paso
TTITLE8=Truckin' > Jam
TTITLE9=The Other One
EXTD=
EXTT0=
EXTT1=
EXTT2=
EXTT3=
EXTT4=
EXTT5=
EXTT6=
EXTT7=
EXTT8=
EXTT9=
PLAYORDER=
